<svg xmlns="http://www.w3.org/2000/svg" width="32" height="32" viewBox="0 0 32 32"><defs><filter id="a" x="-.088" width="1.176" y="-.046" height="1.091" color-interpolation-filters="sRGB"><feGaussianBlur stdDeviation=".532"/></filter></defs><path d="M23.27 2.204v4.442h-2.643q-1.447 0-1.952.605-.505.607-.505 1.818v3.18h4.93l-.656 4.98H18.17V30h-5.15V17.23H8.73v-4.982h4.29V8.58q0-3.13 1.75-4.854Q16.52 2 19.433 2q2.474 0 3.837.202z" filter="url(#a)"/><path d="M23.27 2.204v4.442h-2.643q-1.447 0-1.952.605-.505.607-.505 1.818v3.18h4.93l-.656 4.98H18.17V30h-5.15V17.23H8.73v-4.982h4.29V8.58q0-3.13 1.75-4.854Q16.52 2 19.433 2q2.474 0 3.837.202z" fill="#fff8e4"/></svg>