<svg xmlns="http://www.w3.org/2000/svg" width="32" height="32" viewBox="0 0 32 32"><defs><filter id="a" x="-.059" width="1.117" y="-.061" height="1.123" color-interpolation-filters="sRGB"><feGaussianBlur stdDeviation=".685"/></filter></defs><path d="M8.362 11.315V29.38H2.347V11.315h6.015zm.383-5.58q.018 1.332-.92 2.225-.94.892-2.47.894h-.037q-1.494 0-2.407-.894Q2 7.066 2 5.736q0-1.348.94-2.233.938-.884 2.452-.884 1.513 0 2.424.883.91.885.93 2.233zM30 19.026V29.38h-5.998v-9.66q0-1.916-.738-3-.74-1.083-2.307-1.085-1.148 0-1.922.63-.775.628-1.158 1.558-.2.547-.2 1.477v10.08h-5.998q.035-7.272.035-11.793 0-4.52-.02-5.396l-.018-.874h5.998v2.625h-.036q.364-.582.747-1.02.383-.437 1.03-.947.648-.51 1.586-.793.938-.284 2.087-.282 3.117 0 5.013 2.068Q30 15.036 30 19.026z" filter="url(#a)"/><path d="M8.362 11.315V29.38H2.347V11.315h6.015zm.383-5.58q.018 1.332-.92 2.225-.94.892-2.47.894h-.037q-1.494 0-2.407-.894Q2 7.066 2 5.736q0-1.348.94-2.233.938-.884 2.452-.884 1.513 0 2.424.883.91.885.93 2.233zM30 19.026V29.38h-5.998v-9.66q0-1.916-.738-3-.74-1.083-2.307-1.085-1.148 0-1.922.63-.775.628-1.158 1.558-.2.547-.2 1.477v10.08h-5.998q.035-7.272.035-11.793 0-4.52-.02-5.396l-.018-.874h5.998v2.625h-.036q.364-.582.747-1.02.383-.437 1.03-.947.648-.51 1.586-.793.938-.284 2.087-.282 3.117 0 5.013 2.068Q30 15.036 30 19.026z" fill="#fff8e4"/></svg>