<svg xmlns="http://www.w3.org/2000/svg" width="32" height="32" viewBox="0 0 32 32"><defs><filter id="a" x="-.054" width="1.109" y="-.067" height="1.134" color-interpolation-filters="sRGB"><feGaussianBlur stdDeviation=".634"/></filter></defs><path d="M30 7.33q-1.192 1.74-2.88 2.966.02.25.02.746 0 2.31-.676 4.61-.675 2.302-2.052 4.416-1.377 2.113-3.278 3.74-1.9 1.625-4.584 2.593-2.682.968-5.738.97-4.814 0-8.812-2.577.622.072 1.386.072 3.998 0 7.125-2.452-1.865-.035-3.34-1.146-1.475-1.11-2.025-2.833.587.088 1.084.088.763 0 1.508-.195-1.99-.408-3.295-1.98-1.305-1.573-1.305-3.652v-.07q1.208.674 2.594.727-1.173-.782-1.866-2.043-.694-1.262-.693-2.736 0-1.564.783-2.896 2.15 2.647 5.232 4.237 3.083 1.59 6.6 1.768-.142-.675-.142-1.314 0-2.382 1.68-4.06 1.68-1.678 4.06-1.68 2.487 0 4.19 1.813 1.937-.373 3.643-1.386Q28.56 7.1 26.695 8.22 28.348 8.04 30 7.33z" filter="url(#a)"/><path d="M30 7.33q-1.192 1.74-2.88 2.966.02.25.02.746 0 2.31-.676 4.61-.675 2.302-2.052 4.416-1.377 2.113-3.278 3.74-1.9 1.625-4.584 2.593-2.682.968-5.738.97-4.814 0-8.812-2.577.622.072 1.386.072 3.998 0 7.125-2.452-1.865-.035-3.34-1.146-1.475-1.11-2.025-2.833.587.088 1.084.088.763 0 1.508-.195-1.99-.408-3.295-1.98-1.305-1.573-1.305-3.652v-.07q1.208.674 2.594.727-1.173-.782-1.866-2.043-.694-1.262-.693-2.736 0-1.564.783-2.896 2.15 2.647 5.232 4.237 3.083 1.59 6.6 1.768-.142-.675-.142-1.314 0-2.382 1.68-4.06 1.68-1.678 4.06-1.68 2.487 0 4.19 1.813 1.937-.373 3.643-1.386Q28.56 7.1 26.695 8.22 28.348 8.04 30 7.33z" fill="#fff8e4"/></svg>