<?xml version="1.0" encoding="UTF-8" standalone="no"?>
<!-- Generated by IcoMoon.io -->

<svg
   xmlns:osb="http://www.openswatchbook.org/uri/2009/osb"
   xmlns:dc="http://purl.org/dc/elements/1.1/"
   xmlns:cc="http://creativecommons.org/ns#"
   xmlns:rdf="http://www.w3.org/1999/02/22-rdf-syntax-ns#"
   xmlns:svg="http://www.w3.org/2000/svg"
   xmlns="http://www.w3.org/2000/svg"
   xmlns:sodipodi="http://sodipodi.sourceforge.net/DTD/sodipodi-0.dtd"
   xmlns:inkscape="http://www.inkscape.org/namespaces/inkscape"
   version="1.1"
   width="32"
   height="32"
   viewBox="0 0 32 32"
   id="svg2"
   inkscape:version="0.91 r13725"
   sodipodi:docname="facebook.svg"
   inkscape:export-filename="/Users/PEM/Projects/evenements-snvel/assets/facebook.png"
   inkscape:export-xdpi="90"
   inkscape:export-ydpi="90">
  <metadata
     id="metadata10">
    <rdf:RDF>
      <cc:Work
         rdf:about="">
        <dc:format>image/svg+xml</dc:format>
        <dc:type
           rdf:resource="http://purl.org/dc/dcmitype/StillImage" />
        <dc:title></dc:title>
      </cc:Work>
    </rdf:RDF>
  </metadata>
  <defs
     id="defs8">
    <linearGradient
       inkscape:collect="always"
       id="linearGradient4135"
       osb:paint="gradient">
      <stop
         style="stop-color:#000000;stop-opacity:1;"
         offset="0"
         id="stop4137" />
      <stop
         style="stop-color:#000000;stop-opacity:0;"
         offset="1"
         id="stop4139" />
    </linearGradient>
    <filter
       inkscape:collect="always"
       style="color-interpolation-filters:sRGB"
       id="filter4175"
       x="-0.087777779"
       width="1.1755556"
       y="-0.045576923"
       height="1.0911537">
      <feGaussianBlur
         inkscape:collect="always"
         stdDeviation="0.53171388"
         id="feGaussianBlur4177" />
    </filter>
  </defs>
  <sodipodi:namedview
     pagecolor="#ffffff"
     bordercolor="#666666"
     borderopacity="1"
     objecttolerance="10"
     gridtolerance="10"
     guidetolerance="10"
     inkscape:pageopacity="0"
     inkscape:pageshadow="2"
     inkscape:window-width="1085"
     inkscape:window-height="587"
     id="namedview6"
     showgrid="false"
     inkscape:zoom="8.4285714"
     inkscape:cx="1.059322"
     inkscape:cy="14"
     inkscape:window-x="64"
     inkscape:window-y="75"
     inkscape:window-maximized="0"
     inkscape:current-layer="svg2" />
  <path
     style="fill:#000000;fill-opacity:1;stroke:none;stroke-opacity:1;filter:url(#filter4175)"
     inkscape:connector-curvature="0"
     id="path4145"
     d="m 23.269,2.2039784 0,4.4421665 -2.641609,0 q -1.447338,0 -1.952399,0.6052115 -0.505061,0.6052116 -0.505061,1.8167121 l 0,3.1800525 4.929997,0 -0.655826,4.980611 -4.274171,0 0,12.770825 -5.148606,0 0,-12.770825 -4.2903252,0 0,-4.980611 4.2903252,0 0,-3.6678835 q 0,-3.1294393 1.749944,-4.8546151 1.749945,-1.725176 4.660776,-1.725176 2.473613,0 3.836955,0.2013782 z" />
  <path
     d="m 23.269,2.2039769 0,4.4421665 -2.641609,0 q -1.447338,0 -1.952399,0.6052115 -0.505061,0.6052116 -0.505061,1.8167121 l 0,3.180052 4.929997,0 -0.655826,4.980611 -4.274171,0 0,12.770825 -5.148606,0 0,-12.770825 -4.290325,0 0,-4.980611 4.290325,0 0,-3.667883 q 0,-3.1294393 1.749944,-4.8546151 1.749945,-1.725176 4.660776,-1.725176 2.473613,0 3.836955,0.2013782 z"
     id="path4"
     inkscape:connector-curvature="0"
     style="fill:#fff8e4;fill-opacity:1;stroke:none;stroke-opacity:1" />
</svg>
