<?xml version="1.0" encoding="UTF-8" standalone="no"?>
<!-- Generated by IcoMoon.io -->

<svg
   xmlns:dc="http://purl.org/dc/elements/1.1/"
   xmlns:cc="http://creativecommons.org/ns#"
   xmlns:rdf="http://www.w3.org/1999/02/22-rdf-syntax-ns#"
   xmlns:svg="http://www.w3.org/2000/svg"
   xmlns="http://www.w3.org/2000/svg"
   xmlns:sodipodi="http://sodipodi.sourceforge.net/DTD/sodipodi-0.dtd"
   xmlns:inkscape="http://www.inkscape.org/namespaces/inkscape"
   version="1.1"
   width="32"
   height="32"
   viewBox="0 0 32 32"
   id="svg2"
   inkscape:version="0.91 r13725"
   sodipodi:docname="linkedin.svg"
   inkscape:export-filename="/Users/PEM/Projects/evenements-snvel/assets/linkedin.png"
   inkscape:export-xdpi="90"
   inkscape:export-ydpi="90">
  <metadata
     id="metadata10">
    <rdf:RDF>
      <cc:Work
         rdf:about="">
        <dc:format>image/svg+xml</dc:format>
        <dc:type
           rdf:resource="http://purl.org/dc/dcmitype/StillImage" />
        <dc:title></dc:title>
      </cc:Work>
    </rdf:RDF>
  </metadata>
  <defs
     id="defs8">
    <filter
       inkscape:collect="always"
       style="color-interpolation-filters:sRGB"
       id="filter4825"
       x="-0.058673751"
       width="1.1173475"
       y="-0.061387595"
       height="1.1227752">
      <feGaussianBlur
         inkscape:collect="always"
         stdDeviation="0.68452707"
         id="feGaussianBlur4827" />
    </filter>
  </defs>
  <sodipodi:namedview
     pagecolor="#ffffff"
     bordercolor="#666666"
     borderopacity="1"
     objecttolerance="10"
     gridtolerance="10"
     guidetolerance="10"
     inkscape:pageopacity="0"
     inkscape:pageshadow="2"
     inkscape:window-width="911"
     inkscape:window-height="582"
     id="namedview6"
     showgrid="false"
     inkscape:zoom="8.4285714"
     inkscape:cx="1.7910283"
     inkscape:cy="14"
     inkscape:window-x="84"
     inkscape:window-y="117"
     inkscape:window-maximized="0"
     inkscape:current-layer="svg2" />
  <path
     inkscape:connector-curvature="0"
     style="fill:#000000;fill-opacity:1;filter:url(#filter4825)"
     id="path4815"
     d="m 8.3618347,11.31525 0,18.064666 -6.015333,0 0,-18.064666 6.015333,0 z M 8.7445014,5.7362502 q 0.018667,1.3311666 -0.9205,2.2236666 -0.9391666,0.8924999 -2.4698332,0.8936669 l -0.036167,0 q -1.4944999,0 -2.4068331,-0.8936669 -0.912333,-0.8936666 -0.9111664,-2.2236666 0,-1.3486666 0.9391667,-2.2329999 0.9391665,-0.8843332 2.4523331,-0.8843332 1.5131666,0 2.4243332,0.8843332 0.9111667,0.8843333 0.9298333,2.2329999 z M 30,19.02575 l 0,10.354166 -5.997833,0 0,-9.661166 q 0,-1.9145 -0.7385,-2.998333 -0.7385,-1.083833 -2.3065,-1.085 -1.148,0 -1.922667,0.628833 -0.774666,0.628834 -1.157333,1.558667 -0.200667,0.547167 -0.200667,1.477 l 0,10.081166 -5.997832,0 q 0.03617,-7.273 0.03617,-11.793833 0,-4.520833 -0.01867,-5.395833 l -0.01867,-0.875 5.997833,0 0,2.625 -0.03617,0 q 0.365167,-0.583334 0.747833,-1.020834 0.382667,-0.4375 1.030167,-0.947333 0.6475,-0.509833 1.5855,-0.793333 0.938,-0.2835 2.087166,-0.282333 3.117334,0 5.013167,2.068499 1.895833,2.068501 1.895833,6.060834 z" />
  <path
     d="m 8.3618344,11.31525 0,18.064666 -6.015333,0 0,-18.064666 6.015333,0 z M 8.7445011,5.7362503 q 0.018667,1.3311666 -0.9205,2.2236666 -0.9391666,0.8924999 -2.4698332,0.8936669 l -0.036167,0 q -1.4944999,0 -2.4068332,-0.8936669 -0.9123329,-0.8936666 -0.9111663,-2.2236666 0,-1.3486666 0.9391666,-2.2329999 0.9391666,-0.8843332 2.4523332,-0.8843332 1.5131666,0 2.4243332,0.8843332 0.9111667,0.8843333 0.9298333,2.2329999 z M 30,19.02575 l 0,10.354166 -5.997833,0 0,-9.661166 q 0,-1.9145 -0.7385,-2.998333 -0.7385,-1.083833 -2.3065,-1.085 -1.148,0 -1.922667,0.628833 -0.774666,0.628834 -1.157333,1.558667 -0.200667,0.547167 -0.200667,1.477 l 0,10.081166 -5.997832,0 q 0.03617,-7.273 0.03617,-11.793833 0,-4.520833 -0.01867,-5.395833 l -0.01867,-0.875 5.997833,0 0,2.625 -0.03617,0 q 0.365167,-0.583334 0.747833,-1.020834 0.382667,-0.4375 1.030167,-0.947333 0.6475,-0.509833 1.5855,-0.793333 0.938,-0.2835 2.087166,-0.282333 3.117334,0 5.013167,2.068499 1.895833,2.068501 1.895833,6.060834 z"
     id="path4"
     style="fill:#fff8e4;fill-opacity:1"
     inkscape:connector-curvature="0" />
</svg>
