<?xml version="1.0" encoding="UTF-8" standalone="no"?>
<!-- Generated by IcoMoon.io -->

<svg
   xmlns:dc="http://purl.org/dc/elements/1.1/"
   xmlns:cc="http://creativecommons.org/ns#"
   xmlns:rdf="http://www.w3.org/1999/02/22-rdf-syntax-ns#"
   xmlns:svg="http://www.w3.org/2000/svg"
   xmlns="http://www.w3.org/2000/svg"
   xmlns:sodipodi="http://sodipodi.sourceforge.net/DTD/sodipodi-0.dtd"
   xmlns:inkscape="http://www.inkscape.org/namespaces/inkscape"
   version="1.1"
   width="32"
   height="32"
   viewBox="0 0 32 32"
   id="svg2"
   inkscape:version="0.91 r13725"
   sodipodi:docname="twitter.svg"
   inkscape:export-filename="/Users/PEM/Projects/evenements-snvel/assets/twitter.png"
   inkscape:export-xdpi="90"
   inkscape:export-ydpi="90">
  <metadata
     id="metadata10">
    <rdf:RDF>
      <cc:Work
         rdf:about="">
        <dc:format>image/svg+xml</dc:format>
        <dc:type
           rdf:resource="http://purl.org/dc/dcmitype/StillImage" />
        <dc:title></dc:title>
      </cc:Work>
    </rdf:RDF>
  </metadata>
  <defs
     id="defs8">
    <filter
       inkscape:collect="always"
       style="color-interpolation-filters:sRGB"
       id="filter4135"
       x="-0.054363273"
       width="1.1087265"
       y="-0.066940852"
       height="1.1338817">
      <feGaussianBlur
         inkscape:collect="always"
         stdDeviation="0.63423817"
         id="feGaussianBlur4137" />
    </filter>
  </defs>
  <sodipodi:namedview
     pagecolor="#ffffff"
     bordercolor="#666666"
     borderopacity="1"
     objecttolerance="10"
     gridtolerance="10"
     guidetolerance="10"
     inkscape:pageopacity="0"
     inkscape:pageshadow="2"
     inkscape:window-width="950"
     inkscape:window-height="677"
     id="namedview6"
     showgrid="false"
     inkscape:zoom="8.4285714"
     inkscape:cx="10.923729"
     inkscape:cy="14"
     inkscape:window-x="0"
     inkscape:window-y="23"
     inkscape:window-maximized="0"
     inkscape:current-layer="svg2" />
  <path
     inkscape:connector-curvature="0"
     style="fill:#000000;fill-opacity:1;filter:url(#filter4135)"
     id="path4133"
     d="m 29.998863,7.3297338 q -1.19045,1.7407615 -2.877771,2.9664572 0.01819,0.249005 0.01819,0.745878 0,2.309267 -0.675384,4.610574 -0.675383,2.301308 -2.052301,4.415009 -1.37692,2.1137 -3.278,3.739624 -1.901081,1.625923 -4.583284,2.593518 -2.682206,0.967595 -5.738488,0.968733 -4.8140987,0 -8.8118241,-2.576464 0.6219442,0.07164 1.3860144,0.07164 3.9977256,0 7.1245017,-2.451393 -1.8658295,-0.03525 -3.3405309,-1.14611 -1.4747014,-1.110858 -2.025014,-2.833427 0.5866969,0.08868 1.0835701,0.08868 0.7640704,0 1.5099487,-0.195566 -1.9897677,-0.408184 -3.2950547,-1.980668 -1.305287,-1.572484 -1.305287,-3.650938 l 0,-0.07164 Q 4.3456534,13.299034 5.731668,13.352473 4.5594112,12.57021 3.8658353,11.309267 3.1722595,10.048323 3.1733965,8.5736223 q 0,-1.5633882 0.7822626,-2.8959635 2.1500851,2.6469585 5.232518,4.2376345 3.0824329,1.5906757 6.6003409,1.7680497 -0.142126,-0.675384 -0.142126,-1.314383 0,-2.3808977 1.679363,-4.0591238 1.679362,-1.6782261 4.059123,-1.6793631 2.487777,0 4.192155,1.8123932 Q 27.513359,6.0699272 29.218875,5.0568517 28.561683,7.1000579 26.695851,8.2188753 28.347925,8.0415013 30,7.3308708 Z" />
  <path
     d="m 29.998863,7.3297336 q -1.19045,1.7407615 -2.877771,2.9664574 0.01819,0.249005 0.01819,0.745878 0,2.309267 -0.675384,4.610574 -0.675383,2.301308 -2.052301,4.415009 -1.37692,2.1137 -3.278,3.739624 -1.901081,1.625923 -4.583284,2.593518 -2.682206,0.967595 -5.738489,0.968733 -4.8140983,0 -8.8118237,-2.576464 0.6219441,0.07164 1.3860144,0.07164 3.9977256,0 7.1245013,-2.451393 Q 8.6446869,22.37806 7.1699855,21.2672 5.6952841,20.156342 5.1449714,18.433773 q 0.586697,0.08868 1.0835701,0.08868 0.7640705,0 1.5099487,-0.195566 -1.9897677,-0.408184 -3.2950547,-1.980668 -1.305287,-1.572484 -1.305287,-3.650938 l 0,-0.07164 Q 4.3456528,13.299034 5.7316674,13.352473 4.5594106,12.57021 3.8658347,11.309267 3.1722589,10.048323 3.1733959,8.5736221 q 0,-1.5633882 0.7822626,-2.8959635 2.1500851,2.6469585 5.232518,4.2376345 3.0824335,1.5906759 6.6003415,1.7680499 -0.142126,-0.675384 -0.142126,-1.314383 0,-2.3808979 1.679363,-4.059124 1.679362,-1.6782261 4.059123,-1.6793631 2.487777,0 4.192155,1.8123932 Q 27.513359,6.069927 29.218875,5.0568515 28.561683,7.1000577 26.695851,8.2188751 28.347925,8.0415011 30,7.3308706 Z"
     id="path4"
     style="fill:#fff8e4;fill-opacity:1"
     inkscape:connector-curvature="0" />
</svg>
