<?xml version="1.0" standalone="no"?>
<!DOCTYPE svg PUBLIC "-//W3C//DTD SVG 20010904//EN"
 "http://www.w3.org/TR/2001/REC-SVG-20010904/DTD/svg10.dtd">
<svg version="1.0" xmlns="http://www.w3.org/2000/svg"
 width="700.000000pt" height="700.000000pt" viewBox="0 0 700.000000 700.000000"
 preserveAspectRatio="xMidYMid meet">
<metadata>
Created by potrace 1.11, written by Peter Selinger 2001-2013
</metadata>
<g transform="translate(0.000000,700.000000) scale(0.100000,-0.100000)"
fill="#000000" stroke="none">
<path d="M5173 6784 c-60 -25 -97 -54 -118 -94 -7 -14 -45 -136 -83 -270 -39
-135 -111 -384 -160 -555 l-89 -310 -39 1 c-34 0 -69 5 -139 18 -11 2 -42 7
-70 10 -27 4 -57 9 -65 11 -17 4 -78 14 -135 20 -22 3 -51 7 -65 10 -14 3 -41
7 -60 9 -49 6 -121 15 -225 29 l-89 12 -21 60 c-33 95 -63 145 -121 202 -150
147 -378 182 -569 86 -71 -36 -170 -141 -204 -216 l-28 -62 -129 -1 c-129 -1
-393 -13 -425 -19 -10 -2 -50 -7 -90 -10 -40 -4 -80 -8 -89 -10 -9 -2 -41 -6
-70 -10 -29 -4 -60 -8 -69 -10 -341 -67 -535 -146 -650 -266 -62 -65 -86 -122
-85 -204 1 -93 29 -151 113 -236 146 -146 454 -306 951 -495 107 -41 209 -80
225 -85 17 -6 39 -15 50 -19 11 -5 106 -40 210 -77 l190 -68 2 -892 2 -892
-73 -24 -74 -23 -98 230 c-53 127 -101 235 -106 241 -4 5 -8 15 -8 22 0 7 -11
36 -24 65 -13 29 -110 258 -216 508 -211 502 -218 514 -314 546 -78 26 -284
23 -433 -7 -103 -20 -158 -85 -155 -183 1 -47 52 -179 192 -491 10 -22 91
-209 180 -415 89 -206 200 -462 246 -568 46 -106 84 -196 84 -201 0 -4 -26
-25 -57 -46 -169 -114 -286 -242 -343 -375 -48 -113 -28 -280 44 -375 24 -31
32 -36 55 -30 14 4 33 8 41 10 8 2 98 24 200 49 102 26 196 48 209 51 26 5 53
25 34 25 -19 0 -74 51 -84 77 -7 18 -4 36 10 66 22 49 77 105 89 91 5 -5 27
-52 49 -104 88 -205 275 -637 292 -675 10 -22 31 -69 46 -105 15 -36 36 -84
46 -107 10 -24 27 -62 37 -85 107 -247 144 -309 217 -360 35 -24 58 -33 140
-56 11 -2 171 -6 355 -8 380 -4 397 -1 471 70 53 52 95 130 162 301 61 155 70
183 153 465 31 107 79 269 106 360 28 91 52 174 55 185 8 28 173 593 241 822
l56 192 76 30 c41 16 109 42 150 57 138 50 217 91 366 190 275 182 368 314
363 518 -2 83 -43 160 -134 251 -70 70 -267 210 -365 260 -27 14 -51 29 -54
33 -3 5 12 69 33 143 62 212 180 615 211 719 41 134 231 782 235 800 2 8 8 27
14 43 6 15 13 38 15 50 2 12 29 105 59 207 197 658 203 687 171 766 -19 46
-78 103 -132 127 -44 19 -66 21 -340 22 -283 1 -295 1 -349 -21z m-2308 -1246
c2 -2 5 -16 8 -33 18 -115 68 -216 144 -291 191 -188 492 -182 686 12 43 44
117 171 117 202 0 10 11 11 43 7 169 -25 422 -91 496 -130 17 -8 42 -33 55
-53 13 -21 56 -71 95 -112 l72 -74 -51 -175 c-28 -97 -53 -183 -55 -191 -17
-70 -120 -417 -126 -424 -4 -4 -74 13 -156 39 -81 26 -203 64 -270 85 -68 20
-126 40 -130 43 -4 4 -7 92 -8 195 -1 207 -7 237 -56 266 -30 18 -100 23 -159
12 -14 -3 -81 -15 -150 -26 -69 -12 -136 -23 -150 -26 -14 -2 -43 -7 -65 -10
-89 -13 -160 -73 -171 -145 -6 -34 -10 -39 -26 -33 -11 3 -48 14 -82 24 -224
66 -615 193 -857 278 -159 56 -354 153 -409 202 -89 79 -45 160 128 233 34 14
62 24 62 21 0 -2 8 0 19 5 21 12 181 47 251 56 25 3 56 7 70 10 14 2 61 7 105
10 44 4 83 9 86 11 3 1 91 6 195 9 104 4 190 7 191 8 3 3 95 -2 98 -5z m1121
-1643 c245 -85 237 -82 229 -103 -4 -9 -22 -69 -40 -132 -36 -124 -94 -325
-182 -625 -30 -104 -63 -217 -72 -250 -16 -59 -17 -60 -66 -77 -28 -9 -54 -17
-60 -17 -7 -1 -10 215 -9 631 1 348 2 634 3 636 2 4 9 2 197 -63z m1171 -495
c77 -80 74 -136 -11 -199 -64 -49 -141 -88 -134 -69 3 7 25 79 48 161 24 81
47 147 51 147 4 0 25 -18 46 -40z"/>
</g>
</svg>
